# xmcd CD database file
#
# Track frame offsets:
#	150
#	30699
#	47121
#	73914
#	110355
#	130318
#	165857
#	196774
#	212988
#
# Disc length: 3377 seconds
#
# Revision: 0
# Processed by: cddbd v1.4PL0 Copyright (c) Steve Scherf et al.
# Submitted via: CDex 1.50
#
DISCID=7d0d2f09
DTITLE=Anatole Gerasimov - Yes
DYEAR=1998
DGENRE=Jazz
TTITLE0=Moors
TTITLE1=In Anticipation of Alesha
TTITLE2=To Burn But Not on Fire
TTITLE3=Monk's Mood
TTITLE4=Aurora (to Anna X)
TTITLE5=June 14
TTITLE6=Bloomdido
TTITLE7=Time Flies
TTITLE8=Little Feather
EXTD=YEAR: 1998
EXTT0=
EXTT1=
EXTT2=
EXTT3=
EXTT4=
EXTT5=
EXTT6=
EXTT7=
EXTT8=
PLAYORDER=
